User Type,Username,Date,Text
,PerNot,2010-02-12T20:22Z,NO COMMENTS!? A/V?
,oni4ever,2010-05-08T21:00Z,unbelievable.... downloading speed so slow !! nobody wanna share !!! ridiculous 
,tehwes,2010-06-11T21:36Z,"These look like good DVD rips.

But keep in mind that it's a TV show from the 80s so the camera quality isn't great by today's standards, most notably on some of the outside scenes. 

If you want the technical stuff on the vids:

Video
ID                               : 0
Format                           : MPEG-4 Visual
Format profile                   : Advanced Simple@L5
Format settings, BVOP            : No
Format settings, QPel            : No
Format settings, GMC             : No warppoints
Format settings, Matrix          : Default (MPEG)
Codec ID                         : XVID
Codec ID/Hint                    : XviD
Duration                         : 48mn 13s
Bit rate                         : 893 Kbps
Width                            : 512 pixels
Height                           : 384 pixels
Display aspect ratio             : 4:3
Frame rate                       : 23.976 fps
Color space                      : YUV
Chroma subsampling               : 4:2:0
Bit depth                        : 8 bits
Scan type                        : Progressive
Bits/(Pixel*Frame)               : 0.189
Stream size                      : 308 MiB (88%)
Writing library                  : XviD 1.0.2 (UTC 2004-08-29)

Audio
ID                               : 1
Format                           : MPEG Audio
Format version                   : Version 1
Format profile                   : Layer 3
Codec ID                         : 55
Codec ID/Hint                    : MP3
Duration                         : 48mn 13s
Bit rate mode                    : Variable
Bit rate                         : 112 Kbps
Channel(s)                       : 1 channel
Sampling rate                    : 48.0 KHz
Stream size                      : 37.2 MiB (11%)
Alignment                        : Aligned on interleaves
Interleave, duration             : 24 ms (0.58 video frame)
Interleave, preload duration     : 505 ms
Writing library                  : LAME3.90.
Encoding settings                : -m m -V 0 -q 5 -lowpass 19.4 --abr 112"
,Lutiel,2010-08-25T00:28Z,awesome)) thx alot. quality is very good
